<?xml version="1.0" encoding="utf-8"?>
<!-- Generator: Adobe Illustrator 19.2.0, SVG Export Plug-In . SVG Version: 6.00 Build 0)  -->
<svg version="1.1" id="Layer_1" xmlns="http://www.w3.org/2000/svg" xmlns:xlink="http://www.w3.org/1999/xlink" x="0px" y="0px"
	 viewBox="0 0 573.6 132.3" style="enable-background:new 0 0 573.6 132.3;" xml:space="preserve">
<style type="text/css">
	.st0{fill:url(#SVGID_1_);}
	.st1{fill:url(#SVGID_2_);}
</style>
<g>
	<linearGradient id="SVGID_1_" gradientUnits="userSpaceOnUse" x1="425.0358" y1="98.0805" x2="418.0358" y2="-88.9195">
		<stop  offset="0" style="stop-color:#00BFA7"/>
		<stop  offset="1" style="stop-color:#AAFFF9"/>
	</linearGradient>
	<path class="st0" d="M421.7,45.9c3.2-1,5.8-2,5.5-3.3c-0.4-1.2-3-2.5-8.5,0.8C418.7,43.4,418.6,46.9,421.7,45.9z"/>
	<linearGradient id="SVGID_2_" gradientUnits="userSpaceOnUse" x1="289.0522" y1="103.1707" x2="282.0522" y2="-83.8293">
		<stop  offset="0" style="stop-color:#00BFA7"/>
		<stop  offset="1" style="stop-color:#AAFFF9"/>
	</linearGradient>
	<path class="st1" d="M498.9,49.9c0,0-11.3-10.8-35.4,14.2s-29,15.4-24.4,2.7c0,0,14.2-9.3,12.2-14.9c-2-5.6-11.7-2.2-16,3
		c-4.3,5.2-6,14.1-6,14.1s-10.5,14.8-10.2,9.2s3.2-17.9,5.9-23.9s-6.2-1.5-6.2-1.5s-7.3,16-23.5,31.7c0,0-1.6-11.9-1.2-16.2
		c0.4-4.3-1.9-4.3-4.5-2.8c-2.6,1.5-8.9,20.9-12.5,14.4c-3.6-6.5,3.1-18.7,9.2-20.2c6.1-1.4,0.2-6.9-10.2-4
		c-0.6,0.2-1.2,0.5-1.7,0.8c-9.6,6.8-14.9,11.9-14.9,11.9S347.1,50.4,336.2,82c0,0-9.9,11.3-9.9-0.4c-0.1-13.1,3.4-37.2,3.4-37.2
		S366.3-0.3,349,0C331.7,0.3,321,44.7,321,44.7s-4.9,12-18.4,21.2c0,0-6.9-15.2-20.8,0.4c0,0-3.7,3.8-2.9,9.3
		c0,0-9.1,21.9-12.1,16.4l0.6-15.9c0,0,0.2-12.1-8.4-7.3c0,0-7.7,7-11,14.1c0,0,10.2-56.9,9.2-62.3c-1-5.4-7.2,4.2-7.2,4.2
		s-15.4,63.1-23.7,51.3c0,0-3.1-1,2.2-38.2c3.2-0.4,5.3-0.9,5.3-0.9s3.9-4.5-0.3-3.7c-0.9,0.2-2.5,0.3-4.4,0.5
		c4.8-34.3,4.1-32.4,4.1-32.4s-1.6-4.1-5.3,5.2c-2.1,5.3-4.7,17.2-6.8,27.9c-3.3,0.3-6.4,0.5-8,0.6c-0.8,0.1-1.5,0.1-2.3,0
		c-3-0.2-10.4-0.6-2,1.9c3.6,1.1,7.7,1.4,11.6,1.4c-1.2,6.6-2.1,12.2-2.3,14.8c0,0-10.3,33.1-16.5,25.6c0,0,0-5.8-0.5-19
		s-13.8-13.6-18.4-3.1c0,0,1.6-18-10.9-9.6c0,0-10.7,17.3-19.3,17.1c0,0-5.2-2.3,4.2-20.5c0,0-0.9-6.7-5.5-2.5
		c0,0-6.9,22.1-14.9,21.2c-8-0.9,1.9-15.4,7.8-16.5c0,0,5-6-5.2-4.8c0,0-7,0.6-14.2,12.8s-18.4-1.1-18.4-1.1s-28-28.8-70-10.7
		c0,0-8.1-15.1-27.8,4s1.6,1.4,1.6,1.4S25.3,34.6,29,44.8c0,0-15,8.6-10.1,16.5c5.1,8,27.2-1.5,18.7-15.5c0,0,21.3-11,43.1-3.9
		c0,0,11.1,3.3,29.5,18.2c0,0,9.5,5.7,15.8-3.2c0,0,4.1,17.2,19,4.3c0,0,9.3,19.2,29.6-11.7c0,0-2.5,19.3-3.5,21.9s-1.9,6.5,2.6,6
		c4.5-0.4,5.2-3.2,8.2-9c3-5.8,15.4-35.5,11.2,7.3c0,0,0.4,7.5,7.3,8.1c6.8,0.6,14.6-11.1,17.2-17.9c0,0,4.4,39.8,26.1-5.9
		c0,0-5.5,33.4-5.1,40.4c0.4,7,5.4,3.8,6.5-0.6c1.1-4.4,5.6-18.6,15.1-27.5c0,0,1.2-3.1-0.9,9.6c-2.1,12.7-0.2,14.1,7.6,14.1
		c7.8,0,13-15,13-15s5.6,9.3,14.1,6c8.5-3.3,8.6-13.3,9.7-17.2c0,0,14.5-11.9,16.8-14.6c0,0-10.8,53.4,17.9,29.5
		c0,0,15.6,14.7,21.5-12.7c0,0,9.2-9.6,12.5-11.2c-0.2,0.1-0.5,0.9-0.7,1.1c-0.5,1-1,2-1.5,3.1c-1.2,2.9-2.2,6-2.2,9.2
		c0,5.4,3.9,9.2,9,10.5c0,0,7.4,1.3,10.6-10.2c0,0,0.8,17-0.5,19.4c0,0-17.7,20.9-18.4,29.5c-0.7,8.6,12.7,15.2,20.9-1.9
		c0,0,3.8-2.4,5.7-30.9c0,0,13.2-17.5,16.3-20c0,0,1.2,24.2,17.8,4.9c0,0,10,21.9,35-7.4c0,0,17.8-22.2,30.9-16.1
		c0,0-15.5,12.2-6.9,17.7c8.5,5.5,17.1,0,17.7-6.9s-3.5-11.2-3.5-11.2s16.9-18.6,62-16.5c0,0,7.3-0.2,9.2-3.3
		C575.5,28.6,523.7,24.8,498.9,49.9z M447.5,53.1c1.9,3.9-7.4,9.4-7.4,9.4S445.6,49.2,447.5,53.1z M348.5,2.6
		c7,2.1-9.3,27.9-18.4,35.1C330.1,37.6,341.5,0.4,348.5,2.6z M22.9,60.2c-0.7-3.9,7.6-10.7,7.6-10.7C31.9,54.1,23.6,64.1,22.9,60.2z
		 M289.7,84.5c-8-2.3-1.5-16.9-1.5-16.9c4.1,8.7,11.4,4,11.4,4S297.7,86.7,289.7,84.5z M294.3,63.9c3.1-1.3,4.9,4.3,4.9,4.3
		C291.9,73.6,291.2,65.2,294.3,63.9z M345,85.7c-3.9-1.2-1.3-8.3,1.8-12.9c0,0,3.6,3.9,9.4,1.4C356.3,74.2,353.7,88.4,345,85.7z
		 M349.9,68.2c5.2-3.2,5.9,1.9,5.9,1.9C353,74.6,344.7,71.4,349.9,68.2z M380.3,126.4c0,0-2.7,5.8-7.6-0.8
		c-4.9-6.6,13.3-24.8,13.3-24.8C387.2,116,380.3,126.4,380.3,126.4z M490.4,66.7c-3.1-3.3,8.1-12.7,8.1-12.7
		C502.2,59.9,493.4,70,490.4,66.7z"/>
</g>
</svg>
